<svg width="429" height="429" viewBox="0 0 429 429" fill="none" xmlns="http://www.w3.org/2000/svg">
<g filter="url(#filter0_d_3_209)">
<path fill-rule="evenodd" clip-rule="evenodd" d="M331.568 42.0504C291.688 14.1597 241.956 0.390212 190.519 6.38354C148.137 42.3529 131.185 111.302 133.8 182.72C134.165 192.662 134.909 202.641 136.019 212.58L241.405 193.457C240.988 178.545 242.74 163.368 246.769 148.424C257.695 107.917 285.275 69.1144 331.568 42.0504ZM413.425 162.238C403.428 120.393 381.052 84.3783 350.94 57.4103C305.496 81.3463 278.868 117.082 268.824 154.326C265.688 165.952 264.16 177.724 264.172 189.325L413.425 162.238ZM391.732 312.333C413.321 274.878 423.232 230.453 417.508 184.754L266.228 212.209C266.612 214.334 267.053 216.448 267.544 218.546C272.345 238.997 282.196 257.938 296.664 273.333C318.296 296.354 350.437 311.576 391.732 312.333ZM245.425 412.665C247.168 412.394 248.915 412.098 250.661 411.784C303.045 402.276 347.143 373.646 377.063 334.396C335.868 330.564 303.109 313.501 280.061 288.973C262.775 270.576 251.027 248.037 245.327 223.758C244.745 221.282 244.228 218.793 243.776 216.282L139.193 235.262C141.645 249.792 144.867 264.104 148.811 277.929C157.42 308.109 169.425 335.942 184.293 358.749C201.279 384.809 221.961 404.216 245.425 412.665ZM69.5786 355.536C104.897 390.549 152.491 412.317 203.728 414.858C189.424 403.43 176.527 388.574 165.205 371.209C149.043 346.416 136.079 316.454 126.873 284.18C122.72 269.624 119.324 254.59 116.733 239.336L64.3626 248.84C66.4653 259.501 68.1133 270.209 69.292 280.881C72.0933 306.272 72.2466 331.51 69.5786 355.536ZM14.6786 257.857C21.16 284.996 32.8493 309.682 48.48 331.041C49.0133 315.492 48.368 299.524 46.596 283.457C45.4706 273.281 43.896 263.077 41.8826 252.92L14.6786 257.857ZM13.4733 167.376C23.1666 187.408 30.964 208.754 36.7306 230.6L10.5933 235.342C7.68796 212.106 8.81863 189.205 13.4733 167.376ZM152.387 14.4943C91.6279 33.5716 44.808 79.3423 22.7986 136.1C38.764 163.841 51.044 194.713 59.276 226.505L113.501 216.668C112.227 205.653 111.377 194.597 110.976 183.59C108.643 119.882 121.243 57.5169 152.387 14.4943Z" fill="#131217"/>
<path fill-rule="evenodd" clip-rule="evenodd" d="M331.568 42.0504C291.688 14.1597 241.956 0.390212 190.519 6.38354C148.137 42.3529 131.185 111.302 133.8 182.72C134.165 192.662 134.909 202.641 136.019 212.58L241.405 193.457C240.988 178.545 242.74 163.368 246.769 148.424C257.695 107.917 285.275 69.1144 331.568 42.0504ZM413.425 162.238C403.428 120.393 381.052 84.3783 350.94 57.4103C305.496 81.3463 278.868 117.082 268.824 154.326C265.688 165.952 264.16 177.724 264.172 189.325L413.425 162.238ZM391.732 312.333C413.321 274.878 423.232 230.453 417.508 184.754L266.228 212.209C266.612 214.334 267.053 216.448 267.544 218.546C272.345 238.997 282.196 257.938 296.664 273.333C318.296 296.354 350.437 311.576 391.732 312.333ZM245.425 412.665C247.168 412.394 248.915 412.098 250.661 411.784C303.045 402.276 347.143 373.646 377.063 334.396C335.868 330.564 303.109 313.501 280.061 288.973C262.775 270.576 251.027 248.037 245.327 223.758C244.745 221.282 244.228 218.793 243.776 216.282L139.193 235.262C141.645 249.792 144.867 264.104 148.811 277.929C157.42 308.109 169.425 335.942 184.293 358.749C201.279 384.809 221.961 404.216 245.425 412.665ZM69.5786 355.536C104.897 390.549 152.491 412.317 203.728 414.858C189.424 403.43 176.527 388.574 165.205 371.209C149.043 346.416 136.079 316.454 126.873 284.18C122.72 269.624 119.324 254.59 116.733 239.336L64.3626 248.84C66.4653 259.501 68.1133 270.209 69.292 280.881C72.0933 306.272 72.2466 331.51 69.5786 355.536ZM14.6786 257.857C21.16 284.996 32.8493 309.682 48.48 331.041C49.0133 315.492 48.368 299.524 46.596 283.457C45.4706 273.281 43.896 263.077 41.8826 252.92L14.6786 257.857ZM13.4733 167.376C23.1666 187.408 30.964 208.754 36.7306 230.6L10.5933 235.342C7.68796 212.106 8.81863 189.205 13.4733 167.376ZM152.387 14.4943C91.6279 33.5716 44.808 79.3423 22.7986 136.1C38.764 163.841 51.044 194.713 59.276 226.505L113.501 216.668C112.227 205.653 111.377 194.597 110.976 183.59C108.643 119.882 121.243 57.5169 152.387 14.4943Z" stroke="white" stroke-width="10"/>
</g>
<defs>
<filter id="filter0_d_3_209" x="0" y="-0.00012207" width="428.105" height="428.62" filterUnits="userSpaceOnUse" color-interpolation-filters="sRGB">
<feFlood flood-opacity="0" result="BackgroundImageFix"/>
<feColorMatrix in="SourceAlpha" type="matrix" values="0 0 0 0 0 0 0 0 0 0 0 0 0 0 0 0 0 0 127 0" result="hardAlpha"/>
<feOffset dy="4"/>
<feGaussianBlur stdDeviation="2"/>
<feComposite in2="hardAlpha" operator="out"/>
<feColorMatrix type="matrix" values="0 0 0 0 0.920833 0 0 0 0 0.893976 0 0 0 0 0.893976 0 0 0 0.25 0"/>
<feBlend mode="normal" in2="BackgroundImageFix" result="effect1_dropShadow_3_209"/>
<feBlend mode="normal" in="SourceGraphic" in2="effect1_dropShadow_3_209" result="shape"/>
</filter>
</defs>
</svg>
