<svg width="426" height="496" viewBox="0 0 426 496" fill="none" xmlns="http://www.w3.org/2000/svg">
<g filter="url(#filter0_d_6_25)">
<path fill-rule="evenodd" clip-rule="evenodd" d="M146.397 201.844C128.298 188.999 105.727 182.659 82.3821 185.418C63.1475 201.983 55.4539 233.736 56.6402 266.625C56.8063 271.204 57.144 275.799 57.6473 280.376L105.477 271.569C105.287 264.702 106.083 257.713 107.912 250.831C112.87 232.177 125.387 214.307 146.397 201.844ZM183.548 257.193C179.011 237.922 168.855 221.337 155.189 208.917C134.564 219.94 122.479 236.398 117.921 253.549C116.497 258.903 115.804 264.324 115.809 269.667L183.548 257.193ZM173.702 326.314C183.501 309.066 187.999 288.607 185.401 267.562L116.743 280.205C116.917 281.184 117.117 282.157 117.34 283.124C119.519 292.542 123.99 301.265 130.556 308.354C140.374 318.956 154.961 325.966 173.702 326.314ZM107.302 372.519C108.092 372.395 108.885 372.259 109.678 372.114C133.452 367.735 153.466 354.551 167.045 336.475C148.349 334.71 133.481 326.852 123.021 315.557C115.175 307.084 109.844 296.705 107.257 285.524C106.993 284.384 106.758 283.237 106.553 282.081L59.0883 290.822C60.2011 297.513 61.663 304.104 63.453 310.471C67.3602 324.369 72.8091 337.187 79.5569 347.69C87.2655 359.691 96.6525 368.628 107.302 372.519ZM27.4936 346.21C43.5231 362.334 65.1231 372.359 88.377 373.53C81.8851 368.267 76.0318 361.425 70.8938 353.428C63.5583 342.01 57.6746 328.213 53.4969 313.349C51.6116 306.646 50.0703 299.723 48.8949 292.698L25.1263 297.074C26.0808 301.984 26.8287 306.915 27.3633 311.83C28.635 323.523 28.7045 335.146 27.4936 346.21ZM2.57724 301.227C5.51877 313.725 10.824 325.094 17.918 334.93C18.16 327.769 17.8671 320.415 17.0629 313.016C16.5522 308.33 15.8375 303.631 14.9238 298.953L2.57724 301.227ZM2.03022 259.559C6.42951 268.784 9.96831 278.614 12.5855 288.675L0.723132 290.859C-0.595481 280.158 -0.0823134 269.611 2.03022 259.559ZM65.0759 189.154C37.5005 197.939 16.2514 219.018 6.2625 245.155C13.5083 257.931 19.0816 272.148 22.8176 286.789L47.428 282.259C46.8494 277.186 46.464 272.094 46.2816 267.026C45.2228 237.687 50.9413 208.966 65.0759 189.154ZM179.133 192.146C213.087 205.442 252.462 186.75 270.811 156.185L274.822 149.504C250.747 166.501 224.043 179.3 195.815 187.373L179.133 192.146ZM198.773 295.953C216.42 311.322 244.066 308.602 261.553 294.175L265.374 291.021C247.298 296.037 228.522 297.955 209.823 296.697L198.773 295.953ZM122.024 175.275C140.466 183.592 162.781 174.346 173.778 157.934L176.181 154.347C162.383 163.084 147.248 169.422 131.394 173.101L122.024 175.275ZM17.786 201.793C41.3964 165.805 75.6184 147.741 108.954 143.155C152.453 137.171 192.82 116.884 223.873 85.4012C239.267 69.796 251.443 51.2342 259.693 30.8033L260.091 50.7217C260.748 83.5365 250.096 115.557 229.974 141.256L251.472 130.452C300.917 105.603 333.541 55.8754 337.057 0L345.422 25.301C372.542 107.299 342.508 197.589 271.962 246.136L285.823 244.945C310.056 242.859 332.609 231.526 348.928 213.232L343.527 232.119C326.276 292.462 276.159 337.216 214.98 346.908C192.486 350.472 175.757 355.826 158.395 365.648C165.713 359.948 172.401 353.205 178.231 345.464L184.638 340.553C197.692 330.547 212.64 323.382 228.547 319.505C262.119 311.325 289.87 287.456 303.324 255.191L297.777 259.081C282.708 269.653 266.033 277.646 248.413 282.743C246.76 283.222 245.102 283.677 243.435 284.106C233.271 286.726 223.582 285.228 214.646 279.653C207.108 274.951 201.878 268.451 199.056 260.294C222.949 259.307 245.305 247.507 259.81 227.915L263.859 222.448C243.14 232.805 219.978 237.07 196.994 234.76L190.649 234.123C244.388 219.368 288.288 179.487 308.488 126.389L313.723 112.627C274.989 144.222 229.43 166.06 180.778 176.352L171.2 178.377C183.861 164.882 194.383 149.473 202.386 132.704L208.332 120.242C181.24 145.389 147.302 161.656 110.954 166.918L82.8645 170.986L82.8704 170.989C58.7879 173.342 35.6397 183.904 17.7872 201.796L17.786 201.793Z" fill="#1565C0"/>
<path d="M107.302 372.519C108.092 372.395 108.885 372.259 109.678 372.114C133.452 367.735 153.466 354.551 167.045 336.475C148.349 334.71 133.481 326.852 123.021 315.557C115.175 307.084 109.844 296.705 107.257 285.524C106.993 284.384 106.758 283.237 106.553 282.081L59.0883 290.822C60.2011 297.513 61.663 304.104 63.453 310.471C67.3602 324.369 72.8091 337.187 79.5569 347.69C87.2655 359.691 96.6525 368.628 107.302 372.519ZM27.4936 346.21C43.5231 362.334 65.1231 372.359 88.377 373.53C81.8851 368.267 76.0318 361.425 70.8938 353.428C63.5583 342.01 57.6746 328.213 53.4969 313.349C51.6116 306.646 50.0703 299.723 48.8949 292.698L25.1263 297.074C26.0808 301.984 26.8287 306.915 27.3633 311.83C28.635 323.523 28.7045 335.146 27.4936 346.21ZM2.03022 259.559C6.42951 268.784 9.96831 278.614 12.5855 288.675L0.723132 290.859C-0.595481 280.158 -0.0823134 269.611 2.03022 259.559ZM65.0759 189.154C37.5005 197.939 16.2514 219.018 6.2625 245.155C13.5083 257.931 19.0816 272.148 22.8176 286.789L47.428 282.259C46.8494 277.186 46.464 272.094 46.2816 267.026C45.2228 237.687 50.9413 208.966 65.0759 189.154ZM146.397 201.844C128.298 188.999 105.727 182.659 82.3821 185.418C63.1475 201.983 55.4539 233.736 56.6402 266.625C56.8063 271.204 57.144 275.799 57.6473 280.376L105.477 271.569C105.287 264.702 106.083 257.713 107.912 250.831C112.87 232.177 125.387 214.307 146.397 201.844ZM183.548 257.193C179.011 237.922 168.855 221.337 155.189 208.917C134.564 219.94 122.479 236.398 117.921 253.549C116.497 258.903 115.804 264.324 115.809 269.667L183.548 257.193ZM173.702 326.314C183.501 309.066 187.999 288.607 185.401 267.562L116.743 280.205C116.917 281.184 117.117 282.157 117.34 283.124C119.519 292.542 123.99 301.265 130.556 308.354C140.374 318.956 154.961 325.966 173.702 326.314ZM2.57724 301.227C5.51877 313.725 10.824 325.094 17.918 334.93C18.16 327.769 17.8671 320.415 17.0629 313.016C16.5522 308.33 15.8375 303.631 14.9238 298.953L2.57724 301.227ZM179.133 192.146C213.087 205.442 252.462 186.75 270.811 156.185L274.822 149.504C250.747 166.501 224.043 179.3 195.815 187.373L179.133 192.146ZM198.773 295.953C216.42 311.322 244.066 308.602 261.553 294.175L265.374 291.021C247.298 296.037 228.522 297.955 209.823 296.697L198.773 295.953ZM122.024 175.275C140.466 183.592 162.781 174.346 173.778 157.934L176.181 154.347C162.383 163.084 147.248 169.422 131.394 173.101L122.024 175.275ZM17.786 201.793C41.3964 165.805 75.6184 147.741 108.954 143.155C152.453 137.171 192.82 116.884 223.873 85.4012C239.267 69.796 251.443 51.2342 259.693 30.8033L260.091 50.7217C260.748 83.5365 250.096 115.557 229.974 141.256L251.472 130.452C300.917 105.603 333.541 55.8754 337.057 0L345.422 25.301C372.542 107.299 342.508 197.589 271.962 246.136L285.823 244.945C310.056 242.859 332.609 231.526 348.928 213.232L343.527 232.119C326.276 292.462 276.159 337.216 214.98 346.908C192.486 350.472 175.757 355.826 158.395 365.648C165.713 359.948 172.401 353.205 178.231 345.464L184.638 340.553C197.692 330.547 212.64 323.382 228.547 319.505C262.119 311.325 289.87 287.456 303.324 255.191L297.777 259.081C282.708 269.653 266.033 277.646 248.413 282.743C246.76 283.222 245.102 283.677 243.435 284.106C233.271 286.726 223.582 285.228 214.646 279.653C207.108 274.951 201.878 268.451 199.056 260.294C222.949 259.307 245.305 247.507 259.81 227.915L263.859 222.448C243.14 232.805 219.978 237.07 196.994 234.76L190.649 234.123C244.388 219.368 288.288 179.487 308.488 126.389L313.723 112.627C274.989 144.222 229.43 166.06 180.778 176.352L171.2 178.377C183.861 164.882 194.383 149.473 202.386 132.704L208.332 120.242C181.24 145.389 147.302 161.656 110.954 166.918L82.8645 170.986L82.8704 170.989C58.7879 173.342 35.6397 183.904 17.7872 201.796L17.786 201.793Z" fill="#1565C0"/>
</g>
<path d="M0 496H21.5338V465.534L34.0683 496H58.0126V423.104H34.0683V452.363L22.1766 423.104H0V496ZM102.51 435.873C104.117 435.873 104.599 436.376 104.599 437.281V453.066C104.599 454.374 103.314 454.977 101.707 454.977H90.7793V435.873H102.51ZM104.921 481.722C104.921 482.828 104.439 483.231 102.51 483.231H90.7793V466.037H101.385C103.475 466.037 104.921 466.54 104.921 468.149V481.722ZM126.937 431.952C126.937 426.623 122.276 423.104 113.117 423.104H67.6385V496H109.903C123.241 496 128.062 492.783 128.062 484.739V465.836C128.062 462.618 125.33 459.602 118.902 459.401C125.008 458.395 126.937 455.58 126.937 451.96V431.952ZM174.308 486.951L176.397 496H199.859L178.807 423.104H153.899L132.847 496H156.309L158.398 486.951H174.308ZM166.433 449.547L171.736 475.388H160.97L166.433 449.547ZM206.21 496H249.599L253.617 482.426H230.155V423.104H206.21V496ZM260.823 496H284.125V423.104H260.823V496ZM293.779 484.739C293.779 492.783 298.6 496 311.938 496H352.595V453.971H329.936V482.728H319.33C317.723 482.728 317.241 482.225 317.241 481.32V438.085C317.241 437.18 317.723 436.677 319.33 436.677H344.882L340.864 423.104H307.599C298.439 423.104 293.779 426.623 293.779 431.952V484.739ZM400.449 486.951L402.538 496H426L404.948 423.104H380.04L358.988 496H382.45L384.539 486.951H400.449ZM392.574 449.547L397.878 475.388H387.111L392.574 449.547Z" fill="#1565C0"/>
<defs>
<filter id="filter0_d_6_25" x="-4" y="0" width="363.308" height="381.53" filterUnits="userSpaceOnUse" color-interpolation-filters="sRGB">
<feFlood flood-opacity="0" result="BackgroundImageFix"/>
<feColorMatrix in="SourceAlpha" type="matrix" values="0 0 0 0 0 0 0 0 0 0 0 0 0 0 0 0 0 0 127 0" result="hardAlpha"/>
<feOffset dy="4"/>
<feGaussianBlur stdDeviation="2"/>
<feComposite in2="hardAlpha" operator="out"/>
<feColorMatrix type="matrix" values="0 0 0 0 0.920833 0 0 0 0 0.893976 0 0 0 0 0.893976 0 0 0 0.25 0"/>
<feBlend mode="normal" in2="BackgroundImageFix" result="effect1_dropShadow_6_25"/>
<feBlend mode="normal" in="SourceGraphic" in2="effect1_dropShadow_6_25" result="shape"/>
</filter>
</defs>
</svg>
