<?xml version="1.0" encoding="utf-8"?>
<!-- Generator: Adobe Illustrator 19.2.1, SVG Export Plug-In . SVG Version: 6.00 Build 0)  -->
<svg version="1.1" id="layer" xmlns="http://www.w3.org/2000/svg" xmlns:xlink="http://www.w3.org/1999/xlink" x="0px" y="0px"
	 viewBox="0 0 652 652" style="enable-background:new 0 0 652 652;" xml:space="preserve">
<style type="text/css">
	.st0{fill:#FFFFFF;}
	.st1{fill:none;stroke:#000000;stroke-width:0.6116;}
	.st2{fill:none;stroke:#000000;stroke-width:3.8127;}
	.st3{fill:none;stroke:#000000;stroke-width:5.2583;}
	.st4{fill:none;stroke:#000000;stroke-width:5.2742;}
	.st5{fill:none;stroke:#FFFFFF;stroke-width:1.3741;}
	.st6{fill:none;stroke:#000000;stroke-width:7.0137;}
</style>
<g>
	<path class="st0" d="M321.7,570.9c127.2,0,230.3-103.2,230.3-230.5S448.9,109.9,321.7,109.9S91.4,213.1,91.4,340.4
		S194.5,570.9,321.7,570.9"/>
	<ellipse class="st1" cx="321.7" cy="340.4" rx="230.3" ry="230.5"/>
	<path class="st2" d="M321.3,561.8c122.6,0,222-99.5,222-222.2c0-122.7-99.4-222.2-222-222.2s-222,99.5-222,222.2
		C99.3,462.3,198.7,561.8,321.3,561.8z"/>
	<path class="st0" d="M415.7,136.9c-5.2-9.2-50.1-29.1-92.5-29.1s-87.3,19.9-92.5,29.1v54.8h185L415.7,136.9z"/>
	<path class="st3" d="M415.7,136.9c-5.2-9.2-50.1-29.1-92.5-29.1s-87.3,19.9-92.5,29.1v54.8h185L415.7,136.9z"/>
	<path class="st0" d="M390.8,85.7c-23.7-11.2-45.3-14.5-68.5-14.7c-28.9-0.3-55.8,6.4-68.5,13.8v100.7h137.1L390.8,85.7z"/>
	<path class="st4" d="M390.8,85.7c-23.7-11.2-45.3-14.5-68.5-14.7c-28.9-0.3-55.8,6.4-68.5,13.8v100.7h137.1L390.8,85.7z"/>
	<path d="M299.1,86.8v1.2c-1.2,0.5-1.3,1.3-1.3,2.2v47.3c0,0.9,0.1,1.6,1.3,1.5v1.2l-8.8,1.2v-1.2c0.8-0.2,1.1-0.7,1.1-1.4
		c0-1.3-1.2-2.3-13.3-29.1V141c0,0.9,0.1,1.6,1.3,1.5v1.2l-8.8,2.3v-1.2c1.2-0.5,1.3-1.3,1.3-2.2v-47c0-0.9-0.1-1.6-1.3-1.5v-1.2
		c1.2-0.4,10-2.7,11.1-3v1.2c-1.1,0.4-1.3,1.1-1.3,1.7c0,1.1,8,18,11.2,25V91.1c0-1.2-0.4-1.6-1-1.6v-1.2
		C291.6,88,298.1,86.9,299.1,86.8"/>
	<path class="st5" d="M299.1,86.8v1.2c-1.2,0.5-1.3,1.3-1.3,2.2v47.3c0,0.9,0.1,1.6,1.3,1.5v1.2l-8.8,1.2v-1.2
		c0.8-0.2,1.1-0.7,1.1-1.4c0-1.3-1.2-2.3-13.3-29.1V141c0,0.9,0.1,1.6,1.3,1.5v1.2l-8.8,2.3v-1.2c1.2-0.5,1.3-1.3,1.3-2.2v-47
		c0-0.9-0.1-1.6-1.3-1.5v-1.2c1.2-0.4,10-2.7,11.1-3v1.2c-1.1,0.4-1.3,1.1-1.3,1.7c0,1.1,8,18,11.2,25V91.1c0-1.2-0.4-1.6-1-1.6
		v-1.2C291.6,88,298.1,86.9,299.1,86.8z"/>
	<path d="M319.1,131.8h7.8c3.2,0,4.5-6.9,4.5-9.9c0-3-1.3-7-4.5-7h-7.8V131.8z M319.1,107.7h6.3c4,0,5-6.2,5-9c0-2.8-1-6.1-5-6.1
		h-6.3V107.7z M312.2,87.4c0-0.6-0.1-1.1-1.3-1.2v-0.8h17.5c5,0,8.6,5.7,8.6,12.5c0,4.1-1.8,12.5-4.4,13.3v0.1
		c3.1,1.2,5.3,6.6,5.3,11.7c0,5.5-2.8,16-9.3,16h-17.8v-0.8c1.2-0.1,1.3-0.6,1.3-1.2V87.4z"/>
	<path class="st5" d="M319.1,131.8h7.8c3.2,0,4.5-6.9,4.5-9.9c0-3-1.3-7-4.5-7h-7.8V131.8z M319.1,107.7h6.3c4,0,5-6.2,5-9
		c0-2.8-1-6.1-5-6.1h-6.3V107.7z M312.2,87.4c0-0.6-0.1-1.1-1.3-1.2v-0.8h17.5c5,0,8.6,5.7,8.6,12.5c0,4.1-1.8,12.5-4.4,13.3v0.1
		c3.1,1.2,5.3,6.6,5.3,11.7c0,5.5-2.8,16-9.3,16h-17.8v-0.8c1.2-0.1,1.3-0.6,1.3-1.2V87.4z"/>
	<path d="M356.6,121.8l8.6,2.2l-4.5-24.5L356.6,121.8z M355.4,130.4c-1.2,7.4-1.5,8.4-1.5,9c0,0.6,0.2,1.1,0.8,1.3l-0.2,1.1
		l-8.2-1.4v-1.3c0.6-0.2,0.9-0.5,1.2-2.1c0.4-2.3,8.4-45.7,8.4-46.3c0-0.7-0.5-1.1-0.9-1.3v-1.3l12,3.1v1.3c-0.5,0-0.8,0.1-0.8,1.2
		c0,0.8,5.7,31.6,8.5,48.5c0.5,2.7,0.7,3.4,1.3,3.5v1.3l-9.1-2.3v-1.3c0.7,0.1,0.9-0.4,0.9-1c0-0.4-1.4-8-1.6-9.5L355.4,130.4z"/>
	<path class="st5" d="M356.6,121.8l8.6,2.2l-4.5-24.5L356.6,121.8z M355.4,130.4c-1.2,7.4-1.5,8.4-1.5,9c0,0.6,0.2,1.1,0.8,1.3
		l-0.2,1.1l-8.2-1.4v-1.3c0.6-0.2,0.9-0.5,1.2-2.1c0.4-2.3,8.4-45.7,8.4-46.3c0-0.7-0.5-1.1-0.9-1.3v-1.3l12,3.1v1.3
		c-0.5,0-0.8,0.1-0.8,1.2c0,0.8,5.7,31.6,8.5,48.5c0.5,2.7,0.7,3.4,1.3,3.5v1.3l-9.1-2.3v-1.3c0.7,0.1,0.9-0.4,0.9-1
		c0-0.4-1.4-8-1.6-9.5L355.4,130.4z"/>
	<path class="st0" d="M208.6,468.9c73.6,64.9,184,55.5,246.5-20.8c62.5-76.4,53.5-190.9-20.1-255.7c-73.6-64.9-184-55.5-246.5,20.8
		C126,289.5,135,404,208.6,468.9"/>
	<path class="st6" d="M208.6,468.9c73.6,64.9,184,55.5,246.5-20.8c62.5-76.4,53.5-190.9-20.1-255.7c-73.6-64.9-184-55.5-246.5,20.8
		C126,289.5,135,404,208.6,468.9z"/>
	<path class="st6" d="M363.8,153.4c13.4,15.9,58.5,158.6,13.4,278.1c-10.8,28.6-17.1,39-14.6,45.7c4.3,11.8,20.1,14.6,43.9,9.8
		 M232.7,173.8c-12.2,19.5-87.2,145.4,21,271.1c14.3,16.6,34.9,28.8,37.2,40.9c2.1,11-3.4,17.7-8.8,20.7 M208,467.5
		c48.5,21.3,185.1,44.5,271.7-62.9 M300.4,148.5c-45.1,103.7-24.4,273.2,42.7,359.8 M208,467.5c73.6,64.9,184,55.5,246.5-20.8
		c62.5-76.4,53.5-190.9-20.1-255.7c-73.6-64.9-184-55.5-246.5,20.8C125.4,288.1,134.4,402.6,208,467.5z"/>
	<polygon points="321.6,191.9 565.7,277.7 565.7,384.6 322.4,482.3 77.9,384.6 77.9,277.2 	"/>
	<polygon class="st0" points="321.1,165.4 555.2,252.9 555.2,379.8 321.9,472.4 88.6,379.8 88.6,252.9 	"/>
	<polygon class="st6" points="321.1,165.4 555.2,252.9 555.2,379.8 321.9,472.4 88.6,379.8 88.6,252.9 	"/>
	<polygon points="125.1,367.9 116.7,278.6 111.2,280.6 110,268.9 130.8,261.7 133.9,348.3 138.1,259.5 149.3,255 155.4,349.3 
		159.8,251.6 179.6,245.2 179.6,257.5 176.5,258.5 163.5,383.1 147.8,376.5 144.2,323.4 140.5,373.9 	"/>
	<path d="M282.8,431.1c5.2,2.2,8.8,0,8.8-6.7V346c0-7.5-2.3-12.2-4.1-15.1l-24.3-43.6c-1.7-1.3-1.4-18.5-1.4-19.1v-31.5
		c0-1.8-0.8-5.2,2.4-6.4l6.3-2c4-1.3,4,1.9,4,5v42.7l14.4,6.5v-58.9c0-15.3-2.5-15.9-10.6-13.4c-2.4,0.7-24.3,8.3-24.3,8.3
		c-7.8,2.4-6.5,6.5-6.5,17.8V276c0,14.2,3.3,17.3,5.8,21.6l22.6,41.6c0.4,0.7,1.3,2.3,1.3,8.9V407c0,7.6,0.6,9.2-2.8,7.8l-8.6-3.7
		c-2.2-0.9-2-1.7-2-6.5v-43.5l-14.4-10.9v59.3c0,1.9-1.3,7.2,5.6,10.6L282.8,431.1z"/>
	<path d="M435.5,310.1l2.2,0.6c2.9,0.8,6-1,6-5.9l0-49.2c0-4.9-3-5.7-5.9-6.7l-2.2-0.8L435.5,310.1z M411.9,408.4v-11.5l5.8-2.5
		V243.1l-6.9-2.5v-12.9l26,9.2c16.9,6.2,22.4,8.7,22.4,24.5l0,43.7c0,7.7-4.4,11.9-14.8,11.5v0.3c13.9,0.4,13.1,7.4,13.1,21.4
		l0,35.5c0,10,1.6,11.5,2.7,15.2l-15.8,6.3c-1.3-2.4-2.4-3.7-2.4-10.8l0-48.9c0-6.4-1-10.7-8-10.7l0,63.3l3.4-1.4v11.3L411.9,408.4z
		"/>
	<polygon points="500.5,257.9 517.4,337.9 512.9,274.9 507.3,273.2 507.3,260.5 531,268.6 531,281.3 527.1,280 527.1,363.5 
		512.4,369.8 494.3,301.4 494.3,376.5 472.6,385.6 472.6,374.1 478.7,371.5 478.7,263 472.6,260.9 472.6,248.4 	"/>
	<polygon points="181,389.9 181,378.3 186.2,380.8 186.3,242.9 234.4,225.9 234.4,284.1 220.3,278 220.3,243.3 202.8,249.5 
		202.8,312.7 215.3,312.7 215.3,302.3 225.6,302.3 225.6,336.7 215.3,336.7 215.3,326.2 202.8,326.2 202.8,387 220.3,394 
		220.3,356.1 234.4,350.2 234.4,411.1 	"/>
	<polygon points="372.2,326.2 383.7,326.2 383.7,336.7 393.2,336.7 393.2,302.3 383.7,302.3 383.7,312.8 372.2,312.7 372.2,225.9 
		388.4,231.2 388.4,283.8 401.4,277.6 401.4,223.3 357,207.7 356.9,418.3 352.1,420.8 352.1,431.9 401.4,412.5 401.4,360.4 
		388.4,353.9 388.4,406 372.2,412.8 372.2,326.2 	"/>
	<polygon points="322.2,442.7 309.9,438 309.9,425.2 313.6,426.8 313.6,211.1 292.3,218.1 292.2,205.7 321.1,195.3 352.5,205.9 
		352.5,218.3 330,211.1 330,426.8 333.7,425.2 333.7,438 	"/>
	<polygon points="310.2,215.6 310.2,422 306.8,420.5 306.8,216.5 	"/>
	<polygon points="305.7,423.6 305.7,436.8 302.1,435.4 302.1,421.9 	"/>
	<polygon points="106.6,269.7 107.8,280.7 104.5,281.9 103.3,270.7 	"/>
	<polygon points="110.6,284.5 113.8,283.3 121.8,366.5 118.4,365.4 	"/>
	<polygon points="156.5,252.8 153.1,254.2 152.9,259.9 155,284.7 	"/>
	<polygon points="179.5,260.8 182.9,259.7 182.9,375.9 179.5,374.5 	"/>
	<polygon points="177.7,377.3 174.3,375.8 174.3,386.9 177.6,388.4 	"/>
	<polygon points="213.6,274.9 213.6,249.5 217,248.3 217,280 227.7,284.7 227.7,287.6 213.6,282 	"/>
	<polygon points="212,302.3 212,309.7 208.6,309.7 208.6,302.4 	"/>
	<rect x="208.7" y="329.3" width="3.2" height="7.4"/>
	<polygon points="213.7,352.3 213.7,388.1 217,389.2 217,354.3 227.8,349.6 227.8,346.7 	"/>
	<path d="M267.2,234.8v45.1l15.9,6.6v-3.4l-12.2-5.5V233c0-0.6,0.2-2.4-2-1.9c-2.3,0.5-2.9,0.7-2.9,0.7
		C266.4,231.9,267.2,232.6,267.2,234.8"/>
	<path d="M242.8,346.2l-0.2,61.7c-0.2,5.1,0.5,7.9,6.9,10.7c-0.9-0.8-4.6-4.3-3.5-10.5l0.2-59.4L242.8,346.2z"/>
	<path d="M270.5,408.3c0.2-0.8-0.1-59.2-0.1-62c0-5.5-1.5-6.4-2.5-8.4c-1-2.1-18.2-34.2-21.6-39.5c-3.7-5.8-5.9-10.2-5.9-17.4v-51.2
		c-0.2-8.1,6.9-8.9,7.4-9.1c-4.4,2.2-3.8,8.4-4,9.2v51.2c0.1,6.9,3.2,12.3,5.8,16l21.7,39.9c1.1,1.9,2.6,4.4,2.6,7.6v65.1
		c0,0.7,0.7,2.5-1.9,1.8c-2.9-0.8-1.9-0.8-1.9-0.8S270.6,411,270.5,408.3"/>
	<polygon points="348.7,433.2 345.3,434.4 345.3,423.5 348.7,422 	"/>
	<polygon points="384.8,353.9 384.8,404.6 381.4,406 381.4,353.9 	"/>
	<polygon points="381.4,284.3 381.5,232 384.8,233.1 384.8,284.3 	"/>
	<polygon points="376.4,302 379.7,302 379.7,309.8 376.4,309.8 	"/>
	<polygon points="376.4,329.2 379.7,329.2 379.7,336.7 376.4,336.7 	"/>
	<polygon points="411.2,244.3 414.4,245.5 414.4,392.8 411.1,394 	"/>
	<polygon points="469.2,246.8 469.2,259.6 465.9,258.7 465.9,245.7 	"/>
	<polygon points="475.4,369.8 472.2,371.2 472,264 475.4,265 	"/>
	<polygon points="469.2,375.3 469.2,387 465.9,388.4 465.9,376.4 	"/>
	<polygon points="498.1,328.6 498.1,341.3 505.9,372.5 509.1,371.1 	"/>
	<polygon points="408.6,397.8 408.6,409.6 405.2,411 405.2,399 	"/>
	<polygon points="350.5,220.9 353.7,222.1 353.7,416.7 350.4,417.9 	"/>
	<path d="M154,432.5l2.1-1.2c2.3-1.3,2.7-2.9,2-4.1c-1.1-1.9-2.4-1.9-4.4-0.8l-13.8,7.8c-2,1.2-2.7,2.3-1.6,4.2c1,1.7,2.3,1.7,4,0.7
		l3.3-1.9l2.6,4.7l-3.1,1.8c-3.9,2.2-8.3,1.7-10.9-3c-2.8-4.9-0.9-9,2.9-11.1l14.1-7.9c3.9-2.2,8.3-1.7,11,3.2
		c2.6,4.7,0.5,8.9-3.6,11.2l-2,1.1L154,432.5z"/>
	<path d="M166.7,475.1c-1.7,1.6-2.1,2.9-0.6,4.5c1.5,1.6,2.8,1.3,4.5-0.3l11.6-10.8c1.7-1.6,2.1-2.9,0.6-4.5
		c-1.5-1.6-2.8-1.3-4.5,0.3L166.7,475.1z M174.8,460.2c3.2-3,7.6-3.6,11.5,0.6c3.9,4.1,3,8.5-0.2,11.5l-11.8,11
		c-3.2,3-7.6,3.6-11.5-0.6c-3.8-4.1-3-8.5,0.3-11.5L174.8,460.2z"/>
	<polygon points="195.3,511.6 212.6,485.5 216.7,488.2 212.3,506.8 212.4,506.8 222.3,491.9 226.3,494.6 209.1,520.7 205.1,518.1 
		210.2,498 210.1,498 199.4,514.3 	"/>
	<polygon points="240.2,536.3 251,506.9 265.1,512 263.5,516.4 254.4,513.1 251.7,520.7 258.4,523.1 256.8,527.6 250,525.1 
		245.3,538.1 	"/>
	<polygon points="286.6,550.5 290.5,519.4 304.8,521.1 304.2,525.8 295.2,524.7 294.2,532.7 301.1,533.5 300.5,538.2 293.7,537.3 
		292.5,546.5 302.1,547.7 301.5,552.3 	"/>
	<path d="M339.5,534.8l1.9-0.2c2.9-0.3,3.9-1.5,3.5-5.2c-0.4-3.7-1.6-4.7-4.5-4.4l-1.9,0.2L339.5,534.8z M341.3,552l-5.3,0.6
		l-3.4-31.2l7.5-0.8c6-0.7,9.3,1.6,10,8.2c0.5,5-1.2,7.2-2.9,8.3l6.1,13.6l-5.4,0.6l-5.2-12.5c-0.7,0.2-1.8,0.3-2.7,0.4L341.3,552z"
		/>
	<polygon points="387.2,542.1 376.8,512.5 390.4,507.7 391.9,512.1 383.4,515.1 386.1,522.8 392.7,520.4 394.2,524.9 387.7,527.2 
		390.8,535.8 399.8,532.6 401.4,537 	"/>
	<polygon points="430.9,520.9 413.9,494.6 418.1,491.9 433.3,503.3 433.4,503.3 423.7,488.3 427.8,485.6 444.8,511.9 440.8,514.5 
		424.4,501.8 424.4,501.8 435,518.2 	"/>
	<path d="M465.5,466.8l-1.8-1.7c-1.9-1.8-3.6-1.7-4.5-0.7c-1.5,1.6-1.2,2.9,0.5,4.5l11.5,10.9c1.7,1.6,3,1.9,4.5,0.3
		c1.3-1.4,1-2.7-0.5-4.1l-2.7-2.6l3.7-3.9l2.6,2.5c3.2,3.1,4,7.4,0.3,11.3c-3.9,4.1-8.3,3.5-11.5,0.4L456,472.7
		c-3.2-3.1-4-7.4-0.1-11.5c3.7-3.9,8.3-3.1,11.7,0.1l1.7,1.6L465.5,466.8z"/>
	<polygon points="502.6,450.7 475.5,434.9 482.8,422.4 486.8,424.8 482.3,432.6 489.3,436.7 492.8,430.7 496.8,433 493.3,439 
		501.2,443.7 506.1,435.3 510.1,437.7 	"/>
</g>
<g>
	<path d="M555,403.7v-5.8h-2.2v-1h5.6v1h-2.2v5.8H555z M559.1,403.7v-6.8h1.7l1.7,5.4l1.7-5.4h1.6v6.8h-1V398l-1.7,5.7h-1l-1.8-5.8
		v5.8H559.1z"/>
</g>
</svg>
